<?xml version="1.0" encoding="UTF-8" standalone="no"?>
<!DOCTYPE svg PUBLIC "-//W3C//DTD SVG 1.1//EN" "http://www.w3.org/Graphics/SVG/1.1/DTD/svg11.dtd">
<svg xmlns="http://www.w3.org/2000/svg" version="1.1" viewBox="0 0 554 554">
<g stroke-width="2.00" fill="none" stroke-linecap="butt">
<path stroke="#edd195" vector-effect="non-scaling-stroke" d="
  M 268.64 68.15
  Q 266.31 75.14 261.57 79.97"
/>
<path stroke="#e1c283" vector-effect="non-scaling-stroke" d="
  M 261.57 79.97
  C 252.31 87.04 240.95 82.38 233.06 76.16
  A 1.79 1.79 -52.2 0 1 232.75 73.67
  C 241.51 62.30 223.93 54.00 220.55 66.12
  C 219.19 71.00 222.87 72.66 225.88 74.62
  Q 228.07 76.04 227.89 78.65
  Q 227.03 90.84 217.07 94.10
  C 210.30 96.31 202.96 87.99 198.93 83.61
  A 1.15 1.15 -41.6 0 1 199.03 81.97
  C 201.87 79.55 205.09 77.88 203.82 73.49
  C 202.00 67.19 196.17 68.18 191.98 72.32
  A 1.23 1.14 46.5 0 1 190.28 72.21
  Q 184.73 66.22 176.60 67.88
  Q 175.38 68.13 176.31 68.94
  C 187.95 79.17 197.98 96.08 204.60 110.02
  A 0.53 0.52 -23.4 0 0 205.27 110.28
  Q 228.54 101.00 253.53 98.17"
/>
<path stroke="#edd195" vector-effect="non-scaling-stroke" d="
  M 253.53 98.17
  Q 268.82 96.67 284.25 97.46"
/>
<path stroke="#f6dca5" vector-effect="non-scaling-stroke" d="
  M 284.25 97.46
  Q 314.73 99.67 342.97 111.32
  A 0.51 0.51 23.2 0 0 343.63 111.06
  C 350.55 95.33 359.93 80.37 372.54 68.59
  Q 373.23 67.95 372.23 67.78
  Q 363.49 66.25 357.37 72.35
  A 0.85 0.78 -42.1 0 1 356.17 72.34
  C 347.87 62.14 337.89 77.48 349.71 81.67
  A 0.35 0.34 24.7 0 1 349.90 82.17
  Q 346.62 87.65 341.53 91.21
  C 329.86 99.40 318.86 88.71 320.31 76.59
  A 1.79 1.78 -4.1 0 1 321.63 75.07
  Q 326.82 73.70 327.98 69.04
  C 330.31 59.75 314.88 55.66 313.10 66.52
  Q 312.44 70.53 315.77 73.90
  A 0.53 0.53 43.0 0 1 315.80 74.62
  C 309.66 81.83 297.92 86.19 289.09 81.31"
/>
<path stroke="#edd195" vector-effect="non-scaling-stroke" d="
  M 289.09 81.31
  Q 282.64 77.34 280.34 69.61
  A 0.48 0.47 80.4 0 1 280.77 69.00
  C 286.37 68.76 292.43 69.10 294.69 62.72
  C 297.47 54.90 291.00 49.03 283.19 49.42"
/>
<path stroke="#e4c687" vector-effect="non-scaling-stroke" d="
  M 283.19 49.42
  C 286.54 39.11 280.08 28.42 274.38 20.27
  A 0.48 0.48 42.0 0 0 273.57 20.31
  C 268.99 28.48 261.67 38.69 264.98 48.48
  A 0.76 0.76 -9.2 0 1 264.25 49.49
  C 247.08 49.42 250.83 73.78 268.64 68.15"
/>
<path stroke="#d2971d" vector-effect="non-scaling-stroke" d="
  M 283.19 49.42
  Q 282.08 49.02 280.97 49.35
  A 1.46 1.02 -74.1 0 0 280.25 49.94
  L 268.64 68.15"
/>
<path stroke="#e4ad3a" vector-effect="non-scaling-stroke" d="
  M 289.09 81.31
  Q 288.26 86.71 287.51 87.71
  Q 285.83 89.96 285.72 92.70
  A 1.59 1.52 -27.6 0 1 285.42 93.58
  Q 284.18 95.33 284.25 97.46"
/>
<path stroke="#cf9318" vector-effect="non-scaling-stroke" d="
  M 253.53 98.17
  Q 254.91 96.51 254.60 94.01
  A 1.52 0.51 -53.8 0 1 254.90 93.08
  L 260.59 83.04
  Q 261.01 82.29 261.17 82.16
  Q 262.36 81.17 261.57 79.97"
/>
<path stroke="#e4c687" vector-effect="non-scaling-stroke" d="
  M 252.47 69.62
  A 0.95 0.72 48.5 0 0 252.02 69.53
  Q 246.14 70.19 240.07 71.10
  Q 238.10 71.40 238.03 73.93
  A 0.93 0.87 17.9 0 0 238.46 74.70
  C 245.80 79.23 254.50 82.16 260.98 74.27
  A 0.39 0.36 32.6 0 0 260.83 73.70
  L 252.47 69.62"
/>
<path stroke="#f6dca5" vector-effect="non-scaling-stroke" d="
  M 309.44 73.04
  L 295.50 70.25
  A 1.60 1.59 -52.9 0 0 294.45 70.40
  Q 291.17 72.18 287.49 73.03
  Q 286.17 73.33 287.22 74.39
  C 293.93 81.15 302.66 79.90 309.62 74.37
  Q 310.92 73.34 309.44 73.04"
/>
<path stroke="#e1c283" vector-effect="non-scaling-stroke" d="
  M 223.10 77.95
  C 221.90 77.06 220.41 76.25 218.85 76.67
  Q 212.31 78.41 206.22 81.56
  Q 204.11 82.65 205.74 84.38
  C 207.71 86.46 211.71 90.15 214.86 89.99
  C 220.54 89.70 223.77 83.63 223.36 78.46
  A 0.76 0.60 -78.7 0 0 223.10 77.95"
/>
<path stroke="#f6dca5" vector-effect="non-scaling-stroke" d="
  M 324.85 78.93
  Q 324.44 79.86 325.67 83.57
  C 328.65 92.54 336.84 90.53 342.11 85.29
  A 0.54 0.48 -52.7 0 0 342.05 84.47
  Q 334.62 80.52 326.56 78.05
  A 1.15 0.20 -17.6 0 0 325.68 78.17
  Q 325.12 78.32 324.85 78.93"
/>
<path stroke="#e1c283" vector-effect="non-scaling-stroke" d="
  M 137.36 338.69
  C 134.15 330.68 132.89 321.95 135.15 313.48
  A 1.33 1.32 39.8 0 0 135.06 312.55
  Q 129.32 300.90 127.26 295.69
  C 98.03 221.78 127.30 142.02 195.54 102.54
  A 0.45 0.35 -30.5 0 0 195.75 102.00
  L 188.55 90.44
  A 0.76 0.71 -31.4 0 0 187.55 90.23
  Q 131.76 122.80 110.56 182.73
  C 93.93 229.74 100.08 284.10 126.56 326.44
  Q 128.46 329.49 137.21 338.79
  Q 137.55 339.15 137.36 338.69"
/>
<path stroke="#f1d4a0" vector-effect="non-scaling-stroke" d="
  M 410.46 172.00
  Q 424.38 201.67 425.04 234.50"
/>
<path stroke="#fae0ab" vector-effect="non-scaling-stroke" d="
  M 425.04 234.50
  Q 425.67 267.79 412.94 297.47
  Q 411.32 301.25 402.56 320.49
  A 0.66 0.54 -62.6 0 0 402.72 321.27
  Q 408.11 324.57 411.75 329.75
  A 0.55 0.42 -48.5 0 0 412.54 329.59
  C 433.76 296.97 443.40 257.01 438.54 218.25"
/>
<path stroke="#f1d4a0" vector-effect="non-scaling-stroke" d="
  M 438.54 218.25
  Q 435.30 188.27 421.52 161.45"
/>
<path stroke="#e8c994" vector-effect="non-scaling-stroke" d="
  M 421.52 161.45
  Q 399.70 118.52 358.62 93.27
  A 0.66 0.45 31.0 0 0 357.81 93.32
  L 351.26 105.50
  A 0.78 0.37 32.1 0 0 351.71 106.21
  Q 390.42 130.75 410.46 172.00"
/>
<path stroke="#d99d35" vector-effect="non-scaling-stroke" d="
  M 421.52 161.45
  Q 413.64 164.29 410.46 172.00"
/>
<path stroke="#ecb44c" vector-effect="non-scaling-stroke" d="
  M 438.54 218.25
  Q 438.43 220.45 436.65 221.48
  A 1.45 0.49 -24.9 0 0 435.91 222.18
  L 434.53 226.75
  Q 434.27 227.59 434.17 227.73
  L 429.34 234.08
  A 1.94 0.95 -8.1 0 1 428.50 234.65
  Q 426.79 235.31 425.57 237.09
  Q 425.41 237.33 425.37 237.03
  L 425.04 234.50"
/>
<path stroke="#ebcd98" vector-effect="non-scaling-stroke" d="
  M 348.69 139.66
  C 342.70 125.84 330.28 110.72 315.24 106.54
  Q 313.61 106.09 313.73 107.45
  A 1.56 0.93 30.9 0 0 314.19 108.31
  L 319.69 113.81
  A 0.29 0.25 -44.3 0 1 319.66 114.19
  Q 319.52 114.34 319.32 114.20
  Q 302.31 102.47 281.75 99.99
  Q 281.36 99.94 281.18 100.24
  A 0.60 0.46 28.6 0 0 281.49 100.95
  C 298.19 109.83 311.79 118.50 322.38 134.85
  C 332.10 149.87 334.22 164.93 333.21 181.90
  Q 333.10 183.85 335.04 183.61
  C 337.94 183.25 341.17 180.85 343.14 178.38
  Q 356.60 161.41 352.32 139.29
  C 352.18 138.57 352.40 137.56 353.24 138.80
  C 361.61 151.08 356.24 172.80 349.31 184.60
  Q 348.51 185.96 350.04 185.56
  C 359.51 183.04 369.09 176.60 371.82 166.97
  C 376.60 150.11 355.60 127.71 342.63 118.59
  Q 341.58 117.86 340.58 117.96
  A 0.34 0.31 69.6 0 0 340.37 118.47
  Q 346.66 128.24 349.21 139.49
  Q 349.31 139.92 349.10 139.98
  A 0.48 0.28 68.3 0 1 348.69 139.66"
/>
<path stroke="#e1c387" vector-effect="non-scaling-stroke" d="
  M 236.00 151.96
  Q 224.82 155.78 214.49 161.53
  C 190.96 174.62 171.36 150.16 183.32 129.18
  A 0.95 0.57 -53.3 0 0 183.41 128.32
  Q 183.20 128.03 182.76 128.26
  C 176.21 131.73 173.54 143.07 173.55 149.54
  C 173.56 159.75 178.46 167.99 187.12 173.24
  A 0.29 0.29 45.7 0 1 187.12 173.74
  C 164.42 186.38 149.22 206.88 149.54 233.60"
/>
<path stroke="#eacd91" vector-effect="non-scaling-stroke" d="
  M 149.54 233.60
  Q 149.12 253.72 157.50 271.28
  C 158.09 272.51 158.89 271.32 158.90 270.57
  C 159.36 243.27 175.41 229.02 198.75 219.21"
/>
<path stroke="#f6dca5" vector-effect="non-scaling-stroke" d="
  M 198.75 219.21
  Q 215.97 212.38 222.75 210.99
  C 239.19 207.62 256.80 205.08 272.66 199.62
  C 296.95 191.26 309.67 168.49 304.01 143.51
  Q 299.09 121.83 276.98 118.03
  C 274.50 117.60 275.27 119.30 276.29 119.93
  Q 288.43 127.47 289.49 142.01
  C 291.14 164.81 272.86 173.70 253.81 177.85
  Q 229.61 183.13 214.50 186.79"
/>
<path stroke="#eacd91" vector-effect="non-scaling-stroke" d="
  M 214.50 186.79
  C 193.45 191.11 175.37 200.38 162.57 218.02"
/>
<path stroke="#e1c387" vector-effect="non-scaling-stroke" d="
  M 162.57 218.02
  Q 165.75 202.11 176.91 190.40
  Q 183.30 183.71 190.87 178.39
  C 194.65 175.74 196.80 175.43 201.74 174.86
  C 206.74 174.29 212.84 171.19 216.45 168.96
  Q 227.05 162.41 238.25 156.96"
/>
<path stroke="#ecd39a" vector-effect="non-scaling-stroke" d="
  M 238.25 156.96
  Q 254.44 148.99 272.10 150.32
  A 1.35 1.34 8.4 0 0 273.52 149.27
  C 278.26 127.58 263.59 114.64 242.80 116.33
  C 241.61 116.42 240.53 115.84 241.95 114.68
  C 252.21 106.32 263.92 106.04 276.52 106.56
  Q 278.87 106.66 277.18 105.02
  Q 275.45 103.34 272.36 102.57
  Q 250.88 97.18 237.19 112.47
  C 233.67 116.40 230.93 120.08 229.13 124.85
  C 228.41 126.73 230.18 126.47 231.05 125.94
  C 250.07 114.23 269.51 126.18 272.40 146.73
  A 1.57 1.56 -3.1 0 1 270.79 148.51
  C 258.71 148.06 247.67 148.15 236.00 151.96"
/>
<path stroke="#ce9622" vector-effect="non-scaling-stroke" d="
  M 238.25 156.96
  Q 238.42 154.77 237.28 152.92
  A 0.51 0.47 -33.7 0 1 237.44 152.26
  Q 238.07 151.80 236.00 151.96"
/>
<path stroke="#cc9019" vector-effect="non-scaling-stroke" d="
  M 162.57 218.02
  Q 159.85 219.92 157.75 222.67
  Q 156.90 223.77 155.94 226.65
  Q 154.34 231.43 149.54 233.60"
/>
<path stroke="#e1a936" vector-effect="non-scaling-stroke" d="
  M 198.75 219.21
  Q 198.98 213.80 201.88 209.50
  C 205.27 204.47 207.50 200.35 210.38 195.74
  A 0.14 0.13 25.5 0 0 210.30 195.54
  C 210.01 195.46 209.97 195.44 210.18 195.21
  Q 213.01 192.03 215.22 188.37
  A 0.64 0.57 37.7 0 0 215.08 187.63
  Q 214.70 187.27 214.50 186.79"
/>
<path stroke="#dcc18c" vector-effect="non-scaling-stroke" d="
  M 215.97 129.76
  C 212.99 124.65 207.21 121.78 201.38 122.03
  C 184.57 122.75 175.71 143.35 188.13 155.32
  C 189.58 156.73 188.94 155.01 188.74 154.68
  C 182.70 144.23 185.23 128.07 199.41 126.32
  C 205.85 125.52 209.63 128.26 215.08 130.92
  Q 217.26 131.98 215.97 129.76"
/>
<path stroke="#dcc18c" vector-effect="non-scaling-stroke" d="
  M 201.19 137.39
  Q 201.20 138.47 200.48 140.00
  Q 199.72 141.60 201.26 141.04
  C 209.15 138.16 211.16 139.09 216.04 145.47
  Q 217.57 147.47 217.76 144.96
  C 219.07 128.06 190.15 129.70 193.37 147.73
  C 193.53 148.62 194.44 148.79 194.41 147.70
  Q 194.22 140.65 200.08 136.80
  Q 201.18 136.08 201.19 137.39"
/>
<path stroke="#e8c994" vector-effect="non-scaling-stroke" d="
  M 186.25 392.79
  Q 209.56 409.33 234.00 418.50
  Q 268.85 431.58 286.00 438.71"
/>
<path stroke="#f6dca5" vector-effect="non-scaling-stroke" d="
  M 286.00 438.71
  C 311.46 449.19 339.93 464.55 331.60 497.79
  Q 330.17 503.47 328.26 509.02
  Q 327.66 510.75 329.20 509.76
  C 343.02 500.89 351.45 486.86 347.16 470.83
  C 341.48 449.57 314.25 431.87 296.50 421.29"
/>
<path stroke="#e8c994" vector-effect="non-scaling-stroke" d="
  M 296.50 421.29
  C 264.28 401.43 231.73 385.32 217.14 349.43"
/>
<path stroke="#f4d9a3" vector-effect="non-scaling-stroke" d="
  M 217.14 349.43
  C 203.39 308.42 227.56 271.88 255.36 244.31
  A 0.83 0.52 -49.2 0 1 256.18 244.06
  Q 258.01 245.16 258.96 247.04
  A 1.19 0.22 -74.2 0 1 258.87 247.97
  Q 256.58 256.97 259.73 248.73
  A 0.47 0.33 34.9 0 1 260.40 248.73
  C 265.23 253.16 257.69 252.71 257.59 253.67
  A 0.63 0.33 -1.2 0 0 258.27 254.01
  Q 260.60 253.86 262.77 252.71
  A 1.98 1.70 61.8 0 0 263.33 250.16
  Q 261.11 246.06 257.82 242.68
  A 0.57 0.49 48.7 0 1 257.81 241.90
  Q 258.44 241.41 259.17 242.02
  Q 267.48 248.92 260.25 240.30
  A 0.52 0.51 49.4 0 1 260.30 239.58
  Q 271.05 230.05 281.77 220.51
  C 302.70 201.90 320.29 182.49 313.32 151.73
  C 313.08 150.66 312.14 149.72 312.15 152.03
  Q 312.22 170.12 299.93 183.21
  C 281.05 203.31 255.52 214.31 230.84 225.44
  C 201.50 238.68 165.26 262.58 159.43 296.82
  C 156.40 314.64 158.07 329.93 167.62 345.40
  Q 167.92 345.89 167.75 346.07
  A 0.54 0.33 43.8 0 1 167.12 345.93
  Q 143.07 322.57 147.38 288.75
  A 0.60 0.57 -78.4 0 0 146.98 288.11
  Q 146.05 287.82 145.54 288.80
  C 138.89 301.73 136.88 316.41 139.43 330.87
  C 144.04 357.10 164.30 378.18 186.25 392.79"
/>
<path stroke="#dda338" vector-effect="non-scaling-stroke" d="
  M 217.14 349.43
  Q 212.06 353.42 209.26 359.16
  C 205.70 366.45 200.26 373.07 195.84 379.91
  Q 195.65 380.20 195.56 380.83
  C 195.00 384.48 188.70 390.81 186.25 392.79"
/>
<path stroke="#dfa53a" vector-effect="non-scaling-stroke" d="
  M 296.50 421.29
  C 295.07 424.23 293.88 426.79 291.46 429.36
  Q 287.68 433.37 286.00 438.71"
/>
<path stroke="#e8c994" vector-effect="non-scaling-stroke" d="
  M 371.98 212.00
  Q 371.70 211.76 371.51 211.23
  Q 365.77 194.89 350.06 186.93
  A 0.65 0.41 33.1 0 0 349.44 186.92
  Q 349.28 187.05 349.24 187.25
  A 1.16 0.99 33.2 0 0 349.51 188.17
  C 362.19 202.83 364.30 224.90 350.97 239.72
  C 340.50 251.36 330.27 269.81 344.76 283.42
  A 0.74 0.45 48.5 0 0 345.46 283.64
  Q 345.75 283.50 345.50 282.99
  C 342.78 277.41 340.04 270.61 342.81 264.57
  Q 346.25 257.07 352.94 250.63
  C 356.56 247.14 362.66 243.42 366.05 240.07
  C 376.33 229.93 381.05 213.89 372.03 201.50
  C 370.93 199.98 370.40 201.05 370.82 202.49
  Q 372.13 206.99 372.41 211.68
  Q 372.45 212.40 371.98 212.00"
/>
<path stroke="#f7e0b0" vector-effect="non-scaling-stroke" d="
  M 237.58 216.19
  C 225.82 214.29 216.82 215.23 207.64 223.25
  Q 207.19 223.65 207.67 223.80
  Q 207.95 223.89 208.20 223.73
  C 216.42 218.39 221.25 218.43 232.75 219.50
  A 1.88 1.11 20.8 0 0 233.79 219.32
  L 237.76 217.01
  Q 238.82 216.39 237.58 216.19"
/>
<path stroke="#e8c994" vector-effect="non-scaling-stroke" d="
  M 289.16 226.60
  Q 287.90 228.48 290.14 228.76
  Q 293.74 229.22 298.00 227.26
  C 307.77 222.75 318.84 218.91 329.75 218.92
  C 335.88 218.93 339.66 220.73 344.79 223.75
  Q 345.51 224.17 345.51 223.67
  A 1.00 0.64 27.9 0 0 345.14 223.02
  C 341.32 219.78 336.87 216.48 331.70 215.93
  C 319.66 214.63 302.91 216.56 293.02 222.28
  Q 291.43 223.20 289.16 226.60"
/>
<path stroke="#edcf9b" vector-effect="non-scaling-stroke" d="
  M 348.80 276.70
  C 350.83 282.37 355.12 287.43 361.76 287.42
  C 373.26 287.41 385.75 279.93 379.40 266.49
  A 0.85 0.61 70.5 0 0 378.68 265.99
  Q 378.29 266.03 378.20 266.46
  C 375.88 277.23 366.22 287.33 357.35 273.65
  Q 353.37 267.50 357.39 262.28
  C 358.60 260.71 361.89 257.08 363.81 255.81
  C 372.32 250.17 377.65 240.70 380.69 231.20
  Q 380.92 230.47 380.69 229.73
  Q 380.53 229.21 380.32 229.74
  C 377.67 236.23 374.94 241.64 369.55 246.04
  C 360.84 253.14 343.83 262.76 348.80 276.70"
/>
<path stroke="#f7e0b0" vector-effect="non-scaling-stroke" d="
  M 296.75 251.79
  L 297.78 252.34
  A 0.54 0.48 -63.8 0 0 298.47 252.06
  Q 299.58 249.60 298.21 247.25"
/>
<path stroke="#e2c390" vector-effect="non-scaling-stroke" d="
  M 298.21 247.25
  Q 300.41 243.64 304.53 242.20
  A 0.32 0.32 82.4 0 1 304.96 242.53
  C 303.96 254.33 319.25 255.96 320.88 244.01
  Q 320.95 243.52 320.76 243.00
  L 320.21 241.51
  Q 319.91 240.70 320.84 241.16
  L 325.87 243.67
  Q 328.52 244.99 326.21 247.74
  Q 321.19 253.69 313.24 254.08
  Q 312.72 254.11 313.25 254.33
  C 316.73 255.76 326.37 250.79 330.04 249.50"
/>
<path stroke="#f7e0b0" vector-effect="non-scaling-stroke" d="
  M 330.04 249.50
  L 334.83 248.87
  Q 335.41 248.80 334.94 248.40
  Q 332.88 246.67 330.92 248.72
  Q 330.37 249.30 330.46 248.25"
/>
<path stroke="#e2c390" vector-effect="non-scaling-stroke" d="
  M 330.46 248.25
  Q 332.19 245.13 335.73 244.80
  A 1.63 1.16 12.6 0 0 336.68 244.40
  L 338.75 242.26
  A 0.68 0.66 47.0 0 0 338.77 241.36
  C 337.80 240.23 331.20 243.94 335.10 240.11
  Q 335.47 239.75 334.97 239.75
  L 329.51 239.73
  A 0.52 0.35 5.7 0 1 328.96 239.27
  Q 329.76 236.81 327.78 238.00
  A 2.12 1.43 -50.6 0 1 326.77 238.30
  Q 321.91 238.19 317.18 237.06
  C 315.21 236.59 317.22 236.18 317.55 236.20
  Q 321.86 236.43 326.19 236.43
  Q 326.71 236.43 326.21 236.28
  Q 316.62 233.21 307.49 235.48
  Q 299.99 237.35 294.87 243.79
  C 294.80 243.88 294.73 244.57 294.80 244.64
  A 0.71 0.35 -41.1 0 0 295.56 244.44
  C 296.19 243.89 300.12 240.83 300.76 241.25
  A 0.59 0.37 -43.1 0 1 300.56 242.01
  C 298.52 243.61 291.17 250.87 296.75 251.79"
/>
<path stroke="#daa441" vector-effect="non-scaling-stroke" d="
  M 330.46 248.25
  L 330.04 249.50"
/>
<path stroke="#daa441" vector-effect="non-scaling-stroke" d="
  M 298.21 247.25
  L 297.25 247.96"
/>
<path stroke="#e2c390" vector-effect="non-scaling-stroke" d="
  M 297.25 247.96
  Q 295.20 249.64 297.00 251.04"
/>
<path stroke="#daa441" vector-effect="non-scaling-stroke" d="
  M 297.00 251.04
  L 296.75 251.79"
/>
<path stroke="#f7e0b0" vector-effect="non-scaling-stroke" d="
  M 297.00 251.04
  Q 299.15 249.61 297.25 247.96"
/>
<path stroke="#f6dca5" vector-effect="non-scaling-stroke" d="
  M 281.46 389.75
  C 312.55 402.81 342.99 412.16 369.75 431.71"
/>
<path stroke="#ebcd98" vector-effect="non-scaling-stroke" d="
  M 369.75 431.71
  C 383.90 442.66 400.30 458.78 390.39 478.47
  C 390.12 479.00 389.95 480.41 391.23 479.29
  Q 403.95 468.24 405.75 452.69
  C 407.40 438.38 401.02 422.28 388.19 414.81
  Q 386.51 413.84 387.49 415.76
  C 388.09 416.93 393.94 427.73 393.44 427.97
  A 0.94 0.57 44.5 0 1 392.63 427.78
  L 378.50 417.39"
/>
<path stroke="#f6dca5" vector-effect="non-scaling-stroke" d="
  M 378.50 417.39
  Q 359.79 404.45 338.74 395.52
  C 327.12 390.59 306.98 383.69 290.73 375.91"
/>
<path stroke="#e8c994" vector-effect="non-scaling-stroke" d="
  M 290.73 375.91
  Q 275.68 367.96 267.75 362.02
  Q 247.33 346.74 239.05 320.76
  C 238.90 320.28 236.94 313.16 238.02 312.77
  A 0.74 0.48 65.4 0 1 238.73 313.22
  C 243.74 322.94 256.04 344.46 267.82 346.63
  Q 269.59 346.95 268.27 345.73
  C 254.35 332.86 242.22 313.83 240.30 295.23
  Q 239.59 288.43 238.74 281.51
  Q 238.67 281.00 238.34 281.38
  C 223.25 298.93 221.62 331.26 233.09 350.68
  C 243.73 368.68 262.06 381.75 281.46 389.75"
/>
<path stroke="#dfa53a" vector-effect="non-scaling-stroke" d="
  M 290.73 375.91
  Q 291.53 377.32 290.46 378.05
  Q 290.00 378.36 289.76 378.72
  C 287.61 381.97 283.75 382.47 283.15 387.30
  A 1.92 1.09 -35.1 0 1 282.74 388.17
  L 281.46 389.75"
/>
<path stroke="#e2aa3e" vector-effect="non-scaling-stroke" d="
  M 378.50 417.39
  Q 377.00 419.00 376.04 420.87
  C 373.96 424.89 371.04 426.91 369.75 431.71"
/>
<path stroke="#e1c283" vector-effect="non-scaling-stroke" d="
  M 267.65 282.13
  Q 270.82 283.92 274.24 285.19
  Q 274.86 285.42 274.53 284.98
  Q 272.06 281.69 267.96 281.30
  Q 265.83 281.10 267.65 282.13"
/>
<path stroke="#dcc18c" vector-effect="non-scaling-stroke" d="
  M 287.0619 281.4697
  A 3.75 0.69 -25.6 0 0 283.3819 282.4677
  A 3.75 0.69 -25.6 0 0 280.2981 284.7103
  A 3.75 0.69 -25.6 0 0 283.9781 283.7123
  A 3.75 0.69 -25.6 0 0 287.0619 281.4697"
/>
<path stroke="#e2c390" vector-effect="non-scaling-stroke" d="
  M 256.94 309.31
  C 265.76 317.23 274.74 323.26 286.34 315.33
  Q 292.96 310.80 297.18 306.11
  A 0.40 0.40 36.0 0 0 297.08 305.49
  C 290.67 301.77 282.21 297.63 276.40 302.84
  A 1.27 1.27 -47.8 0 1 274.80 302.92
  C 267.33 297.38 260.29 302.37 253.96 305.43
  A 0.44 0.42 -30.7 0 0 253.78 306.06
  Q 254.60 307.22 256.94 309.31"
/>
<path stroke="#fae0ab" vector-effect="non-scaling-stroke" d="
  M 357.49 343.21
  C 369.43 336.42 383.78 332.03 393.65 345.08
  C 401.72 355.73 399.87 364.72 393.54 375.51
  Q 392.69 376.97 393.73 377.38
  A 1.19 0.84 -43.4 0 0 394.64 377.25
  C 409.11 368.49 407.67 348.12 397.02 337.21
  Q 382.72 322.56 365.30 332.88
  Q 359.52 336.30 356.55 342.32
  Q 355.58 344.29 357.49 343.21"
/>
<path stroke="#f6dca5" vector-effect="non-scaling-stroke" d="
  M 262.18 350.26
  C 268.24 361.40 279.03 365.07 290.68 367.21
  C 311.72 371.07 330.38 377.36 347.05 391.19
  Q 362.50 404.01 382.59 403.25
  C 393.56 402.83 403.53 399.18 410.01 390.51
  C 421.82 374.69 420.25 351.04 404.77 337.73
  Q 403.64 336.77 402.37 336.24
  Q 401.04 335.68 401.75 336.94
  C 405.88 344.14 408.83 352.64 408.27 360.79
  C 407.63 370.16 402.11 380.00 394.63 385.08
  C 378.90 395.77 352.28 377.37 338.41 369.60
  Q 331.79 365.89 326.26 364.94
  Q 319.60 363.80 292.14 359.85
  C 282.06 358.40 271.06 355.78 262.55 349.93
  Q 261.67 349.32 262.18 350.26"
/>
<path stroke="#f6dca5" vector-effect="non-scaling-stroke" d="
  M 251.21 449.25
  C 293.88 473.76 272.42 525.33 230.74 530.67
  Q 223.77 531.56 216.74 531.94
  A 1.16 0.73 7.9 0 0 215.90 532.32
  Q 215.53 532.87 216.46 533.22
  Q 230.94 538.65 245.48 535.72
  C 273.44 530.08 301.14 509.65 297.39 477.55
  C 294.81 455.60 276.53 442.16 257.79 433.92"
/>
<path stroke="#e8c994" vector-effect="non-scaling-stroke" d="
  M 257.79 433.92
  C 220.88 418.31 185.15 407.82 159.08 377.42
  Q 156.43 374.32 148.22 363.23
  A 1.16 0.54 60.3 0 0 147.50 362.72
  Q 145.59 362.69 144.44 364.20
  A 0.90 0.59 48.9 0 0 144.57 365.11
  Q 150.57 373.48 159.82 385.43
  C 184.08 416.79 216.92 431.99 251.21 449.25"
/>
<path stroke="#dfa53a" vector-effect="non-scaling-stroke" d="
  M 257.79 433.92
  Q 256.12 439.54 252.56 443.88
  A 1.51 1.18 -31.0 0 0 252.23 444.74
  L 252.24 447.00
  A 1.04 0.82 -21.0 0 1 251.79 447.76
  Q 251.10 448.23 251.21 449.25"
/>
<path stroke="#f7e0b0" vector-effect="non-scaling-stroke" d="
  M 309.99 418.18
  C 330.08 431.76 350.23 445.86 356.15 471.25
  Q 356.29 471.84 356.55 471.34
  Q 357.02 470.44 356.85 468.68
  C 354.53 444.33 334.10 424.15 311.19 416.37
  C 309.63 415.84 307.50 416.50 309.99 418.18"
/>
<path stroke="#ebcd98" vector-effect="non-scaling-stroke" d="
  M 379.52 467.25
  C 375.24 455.00 365.15 440.87 352.77 435.72
  A 0.37 0.37 -76.8 0 0 352.26 436.04
  C 352.22 436.58 352.24 437.22 352.53 437.71
  C 364.70 458.14 369.62 481.00 357.51 502.82
  Q 354.50 508.26 347.70 516.46
  Q 346.93 517.39 347.75 517.66
  A 1.37 0.89 -40.8 0 0 348.69 517.53
  C 366.12 508.58 387.31 489.55 379.52 467.25"
/>
<path stroke="#e8c994" vector-effect="non-scaling-stroke" d="
  M 201.26 460.67
  Q 202.09 460.06 202.19 461.07
  L 203.30 472.24
  Q 203.57 475.05 204.62 472.50
  C 207.12 466.37 213.17 459.61 219.35 457.36
  C 226.64 454.72 234.42 457.38 241.49 459.80
  Q 243.33 460.43 242.49 458.78
  C 232.29 438.61 200.61 443.78 193.74 463.96
  C 190.18 474.42 194.68 486.97 205.17 491.36
  C 205.75 491.60 206.89 491.41 206.17 490.57
  C 199.73 482.98 195.31 476.30 197.88 465.98
  Q 198.73 462.55 201.26 460.67"
/>
<path stroke="#edcf9b" vector-effect="non-scaling-stroke" d="
  M 223.58 517.80
  Q 223.90 517.42 225.10 516.62
  Q 234.81 510.19 244.56 503.75
  A 0.75 0.60 -27.9 0 0 244.89 502.99
  Q 244.57 502.03 243.24 502.45
  C 217.16 510.72 188.82 505.27 186.93 472.60
  Q 186.86 471.41 185.97 472.20
  C 179.16 478.27 177.74 490.37 179.51 498.52
  C 183.68 517.73 202.57 526.07 220.56 526.89
  C 237.55 527.67 251.79 520.14 259.90 505.12
  C 265.36 495.02 265.69 487.84 263.40 476.46
  C 263.06 474.75 261.78 474.86 261.65 476.52
  C 260.36 492.24 258.91 504.85 243.60 512.77
  C 237.73 515.80 231.00 519.41 224.25 519.28
  Q 222.39 519.24 223.58 517.80"
/>
<path stroke="#e2c390" vector-effect="non-scaling-stroke" d="
  M 317.80 247.30
  Q 318.51 246.47 318.39 245.43
  Q 318.32 244.84 318.03 245.22
  Q 312.81 252.09 307.71 245.24
  Q 307.37 244.78 307.30 245.26
  Q 307.11 246.59 307.68 247.24
  Q 312.84 253.08 317.80 247.30"
/>
<path stroke="#e2c390" vector-effect="non-scaling-stroke" d="
  M 266.66 308.89
  Q 275.93 312.25 285.11 308.45
  Q 285.78 308.17 285.02 308.33
  Q 275.60 310.34 266.18 308.28
  C 265.55 308.14 264.40 308.67 266.19 308.80
  Q 266.44 308.81 266.66 308.89"
/>
</g>
<path fill="#ffffff" d="
  M 0.00 0.00
  L 554.00 0.00
  L 554.00 554.00
  L 0.00 554.00
  L 0.00 0.00
  Z
  M 268.64 68.15
  Q 266.31 75.14 261.57 79.97
  C 252.31 87.04 240.95 82.38 233.06 76.16
  A 1.79 1.79 -52.2 0 1 232.75 73.67
  C 241.51 62.30 223.93 54.00 220.55 66.12
  C 219.19 71.00 222.87 72.66 225.88 74.62
  Q 228.07 76.04 227.89 78.65
  Q 227.03 90.84 217.07 94.10
  C 210.30 96.31 202.96 87.99 198.93 83.61
  A 1.15 1.15 -41.6 0 1 199.03 81.97
  C 201.87 79.55 205.09 77.88 203.82 73.49
  C 202.00 67.19 196.17 68.18 191.98 72.32
  A 1.23 1.14 46.5 0 1 190.28 72.21
  Q 184.73 66.22 176.60 67.88
  Q 175.38 68.13 176.31 68.94
  C 187.95 79.17 197.98 96.08 204.60 110.02
  A 0.53 0.52 -23.4 0 0 205.27 110.28
  Q 228.54 101.00 253.53 98.17
  Q 268.82 96.67 284.25 97.46
  Q 314.73 99.67 342.97 111.32
  A 0.51 0.51 23.2 0 0 343.63 111.06
  C 350.55 95.33 359.93 80.37 372.54 68.59
  Q 373.23 67.95 372.23 67.78
  Q 363.49 66.25 357.37 72.35
  A 0.85 0.78 -42.1 0 1 356.17 72.34
  C 347.87 62.14 337.89 77.48 349.71 81.67
  A 0.35 0.34 24.7 0 1 349.90 82.17
  Q 346.62 87.65 341.53 91.21
  C 329.86 99.40 318.86 88.71 320.31 76.59
  A 1.79 1.78 -4.1 0 1 321.63 75.07
  Q 326.82 73.70 327.98 69.04
  C 330.31 59.75 314.88 55.66 313.10 66.52
  Q 312.44 70.53 315.77 73.90
  A 0.53 0.53 43.0 0 1 315.80 74.62
  C 309.66 81.83 297.92 86.19 289.09 81.31
  Q 282.64 77.34 280.34 69.61
  A 0.48 0.47 80.4 0 1 280.77 69.00
  C 286.37 68.76 292.43 69.10 294.69 62.72
  C 297.47 54.90 291.00 49.03 283.19 49.42
  C 286.54 39.11 280.08 28.42 274.38 20.27
  A 0.48 0.48 42.0 0 0 273.57 20.31
  C 268.99 28.48 261.67 38.69 264.98 48.48
  A 0.76 0.76 -9.2 0 1 264.25 49.49
  C 247.08 49.42 250.83 73.78 268.64 68.15
  Z
  M 252.47 69.62
  A 0.95 0.72 48.5 0 0 252.02 69.53
  Q 246.14 70.19 240.07 71.10
  Q 238.10 71.40 238.03 73.93
  A 0.93 0.87 17.9 0 0 238.46 74.70
  C 245.80 79.23 254.50 82.16 260.98 74.27
  A 0.39 0.36 32.6 0 0 260.83 73.70
  L 252.47 69.62
  Z
  M 309.44 73.04
  L 295.50 70.25
  A 1.60 1.59 -52.9 0 0 294.45 70.40
  Q 291.17 72.18 287.49 73.03
  Q 286.17 73.33 287.22 74.39
  C 293.93 81.15 302.66 79.90 309.62 74.37
  Q 310.92 73.34 309.44 73.04
  Z
  M 223.10 77.95
  C 221.90 77.06 220.41 76.25 218.85 76.67
  Q 212.31 78.41 206.22 81.56
  Q 204.11 82.65 205.74 84.38
  C 207.71 86.46 211.71 90.15 214.86 89.99
  C 220.54 89.70 223.77 83.63 223.36 78.46
  A 0.76 0.60 -78.7 0 0 223.10 77.95
  Z
  M 324.85 78.93
  Q 324.44 79.86 325.67 83.57
  C 328.65 92.54 336.84 90.53 342.11 85.29
  A 0.54 0.48 -52.7 0 0 342.05 84.47
  Q 334.62 80.52 326.56 78.05
  A 1.15 0.20 -17.6 0 0 325.68 78.17
  Q 325.12 78.32 324.85 78.93
  Z
  M 137.36 338.69
  C 134.15 330.68 132.89 321.95 135.15 313.48
  A 1.33 1.32 39.8 0 0 135.06 312.55
  Q 129.32 300.90 127.26 295.69
  C 98.03 221.78 127.30 142.02 195.54 102.54
  A 0.45 0.35 -30.5 0 0 195.75 102.00
  L 188.55 90.44
  A 0.76 0.71 -31.4 0 0 187.55 90.23
  Q 131.76 122.80 110.56 182.73
  C 93.93 229.74 100.08 284.10 126.56 326.44
  Q 128.46 329.49 137.21 338.79
  Q 137.55 339.15 137.36 338.69
  Z
  M 410.46 172.00
  Q 424.38 201.67 425.04 234.50
  Q 425.67 267.79 412.94 297.47
  Q 411.32 301.25 402.56 320.49
  A 0.66 0.54 -62.6 0 0 402.72 321.27
  Q 408.11 324.57 411.75 329.75
  A 0.55 0.42 -48.5 0 0 412.54 329.59
  C 433.76 296.97 443.40 257.01 438.54 218.25
  Q 435.30 188.27 421.52 161.45
  Q 399.70 118.52 358.62 93.27
  A 0.66 0.45 31.0 0 0 357.81 93.32
  L 351.26 105.50
  A 0.78 0.37 32.1 0 0 351.71 106.21
  Q 390.42 130.75 410.46 172.00
  Z
  M 348.69 139.66
  C 342.70 125.84 330.28 110.72 315.24 106.54
  Q 313.61 106.09 313.73 107.45
  A 1.56 0.93 30.9 0 0 314.19 108.31
  L 319.69 113.81
  A 0.29 0.25 -44.3 0 1 319.66 114.19
  Q 319.52 114.34 319.32 114.20
  Q 302.31 102.47 281.75 99.99
  Q 281.36 99.94 281.18 100.24
  A 0.60 0.46 28.6 0 0 281.49 100.95
  C 298.19 109.83 311.79 118.50 322.38 134.85
  C 332.10 149.87 334.22 164.93 333.21 181.90
  Q 333.10 183.85 335.04 183.61
  C 337.94 183.25 341.17 180.85 343.14 178.38
  Q 356.60 161.41 352.32 139.29
  C 352.18 138.57 352.40 137.56 353.24 138.80
  C 361.61 151.08 356.24 172.80 349.31 184.60
  Q 348.51 185.96 350.04 185.56
  C 359.51 183.04 369.09 176.60 371.82 166.97
  C 376.60 150.11 355.60 127.71 342.63 118.59
  Q 341.58 117.86 340.58 117.96
  A 0.34 0.31 69.6 0 0 340.37 118.47
  Q 346.66 128.24 349.21 139.49
  Q 349.31 139.92 349.10 139.98
  A 0.48 0.28 68.3 0 1 348.69 139.66
  Z
  M 236.00 151.96
  Q 224.82 155.78 214.49 161.53
  C 190.96 174.62 171.36 150.16 183.32 129.18
  A 0.95 0.57 -53.3 0 0 183.41 128.32
  Q 183.20 128.03 182.76 128.26
  C 176.21 131.73 173.54 143.07 173.55 149.54
  C 173.56 159.75 178.46 167.99 187.12 173.24
  A 0.29 0.29 45.7 0 1 187.12 173.74
  C 164.42 186.38 149.22 206.88 149.54 233.60
  Q 149.12 253.72 157.50 271.28
  C 158.09 272.51 158.89 271.32 158.90 270.57
  C 159.36 243.27 175.41 229.02 198.75 219.21
  Q 215.97 212.38 222.75 210.99
  C 239.19 207.62 256.80 205.08 272.66 199.62
  C 296.95 191.26 309.67 168.49 304.01 143.51
  Q 299.09 121.83 276.98 118.03
  C 274.50 117.60 275.27 119.30 276.29 119.93
  Q 288.43 127.47 289.49 142.01
  C 291.14 164.81 272.86 173.70 253.81 177.85
  Q 229.61 183.13 214.50 186.79
  C 193.45 191.11 175.37 200.38 162.57 218.02
  Q 165.75 202.11 176.91 190.40
  Q 183.30 183.71 190.87 178.39
  C 194.65 175.74 196.80 175.43 201.74 174.86
  C 206.74 174.29 212.84 171.19 216.45 168.96
  Q 227.05 162.41 238.25 156.96
  Q 254.44 148.99 272.10 150.32
  A 1.35 1.34 8.4 0 0 273.52 149.27
  C 278.26 127.58 263.59 114.64 242.80 116.33
  C 241.61 116.42 240.53 115.84 241.95 114.68
  C 252.21 106.32 263.92 106.04 276.52 106.56
  Q 278.87 106.66 277.18 105.02
  Q 275.45 103.34 272.36 102.57
  Q 250.88 97.18 237.19 112.47
  C 233.67 116.40 230.93 120.08 229.13 124.85
  C 228.41 126.73 230.18 126.47 231.05 125.94
  C 250.07 114.23 269.51 126.18 272.40 146.73
  A 1.57 1.56 -3.1 0 1 270.79 148.51
  C 258.71 148.06 247.67 148.15 236.00 151.96
  Z
  M 215.97 129.76
  C 212.99 124.65 207.21 121.78 201.38 122.03
  C 184.57 122.75 175.71 143.35 188.13 155.32
  C 189.58 156.73 188.94 155.01 188.74 154.68
  C 182.70 144.23 185.23 128.07 199.41 126.32
  C 205.85 125.52 209.63 128.26 215.08 130.92
  Q 217.26 131.98 215.97 129.76
  Z
  M 201.19 137.39
  Q 201.20 138.47 200.48 140.00
  Q 199.72 141.60 201.26 141.04
  C 209.15 138.16 211.16 139.09 216.04 145.47
  Q 217.57 147.47 217.76 144.96
  C 219.07 128.06 190.15 129.70 193.37 147.73
  C 193.53 148.62 194.44 148.79 194.41 147.70
  Q 194.22 140.65 200.08 136.80
  Q 201.18 136.08 201.19 137.39
  Z
  M 186.25 392.79
  Q 209.56 409.33 234.00 418.50
  Q 268.85 431.58 286.00 438.71
  C 311.46 449.19 339.93 464.55 331.60 497.79
  Q 330.17 503.47 328.26 509.02
  Q 327.66 510.75 329.20 509.76
  C 343.02 500.89 351.45 486.86 347.16 470.83
  C 341.48 449.57 314.25 431.87 296.50 421.29
  C 264.28 401.43 231.73 385.32 217.14 349.43
  C 203.39 308.42 227.56 271.88 255.36 244.31
  A 0.83 0.52 -49.2 0 1 256.18 244.06
  Q 258.01 245.16 258.96 247.04
  A 1.19 0.22 -74.2 0 1 258.87 247.97
  Q 256.58 256.97 259.73 248.73
  A 0.47 0.33 34.9 0 1 260.40 248.73
  C 265.23 253.16 257.69 252.71 257.59 253.67
  A 0.63 0.33 -1.2 0 0 258.27 254.01
  Q 260.60 253.86 262.77 252.71
  A 1.98 1.70 61.8 0 0 263.33 250.16
  Q 261.11 246.06 257.82 242.68
  A 0.57 0.49 48.7 0 1 257.81 241.90
  Q 258.44 241.41 259.17 242.02
  Q 267.48 248.92 260.25 240.30
  A 0.52 0.51 49.4 0 1 260.30 239.58
  Q 271.05 230.05 281.77 220.51
  C 302.70 201.90 320.29 182.49 313.32 151.73
  C 313.08 150.66 312.14 149.72 312.15 152.03
  Q 312.22 170.12 299.93 183.21
  C 281.05 203.31 255.52 214.31 230.84 225.44
  C 201.50 238.68 165.26 262.58 159.43 296.82
  C 156.40 314.64 158.07 329.93 167.62 345.40
  Q 167.92 345.89 167.75 346.07
  A 0.54 0.33 43.8 0 1 167.12 345.93
  Q 143.07 322.57 147.38 288.75
  A 0.60 0.57 -78.4 0 0 146.98 288.11
  Q 146.05 287.82 145.54 288.80
  C 138.89 301.73 136.88 316.41 139.43 330.87
  C 144.04 357.10 164.30 378.18 186.25 392.79
  Z
  M 371.98 212.00
  Q 371.70 211.76 371.51 211.23
  Q 365.77 194.89 350.06 186.93
  A 0.65 0.41 33.1 0 0 349.44 186.92
  Q 349.28 187.05 349.24 187.25
  A 1.16 0.99 33.2 0 0 349.51 188.17
  C 362.19 202.83 364.30 224.90 350.97 239.72
  C 340.50 251.36 330.27 269.81 344.76 283.42
  A 0.74 0.45 48.5 0 0 345.46 283.64
  Q 345.75 283.50 345.50 282.99
  C 342.78 277.41 340.04 270.61 342.81 264.57
  Q 346.25 257.07 352.94 250.63
  C 356.56 247.14 362.66 243.42 366.05 240.07
  C 376.33 229.93 381.05 213.89 372.03 201.50
  C 370.93 199.98 370.40 201.05 370.82 202.49
  Q 372.13 206.99 372.41 211.68
  Q 372.45 212.40 371.98 212.00
  Z
  M 237.58 216.19
  C 225.82 214.29 216.82 215.23 207.64 223.25
  Q 207.19 223.65 207.67 223.80
  Q 207.95 223.89 208.20 223.73
  C 216.42 218.39 221.25 218.43 232.75 219.50
  A 1.88 1.11 20.8 0 0 233.79 219.32
  L 237.76 217.01
  Q 238.82 216.39 237.58 216.19
  Z
  M 289.16 226.60
  Q 287.90 228.48 290.14 228.76
  Q 293.74 229.22 298.00 227.26
  C 307.77 222.75 318.84 218.91 329.75 218.92
  C 335.88 218.93 339.66 220.73 344.79 223.75
  Q 345.51 224.17 345.51 223.67
  A 1.00 0.64 27.9 0 0 345.14 223.02
  C 341.32 219.78 336.87 216.48 331.70 215.93
  C 319.66 214.63 302.91 216.56 293.02 222.28
  Q 291.43 223.20 289.16 226.60
  Z
  M 348.80 276.70
  C 350.83 282.37 355.12 287.43 361.76 287.42
  C 373.26 287.41 385.75 279.93 379.40 266.49
  A 0.85 0.61 70.5 0 0 378.68 265.99
  Q 378.29 266.03 378.20 266.46
  C 375.88 277.23 366.22 287.33 357.35 273.65
  Q 353.37 267.50 357.39 262.28
  C 358.60 260.71 361.89 257.08 363.81 255.81
  C 372.32 250.17 377.65 240.70 380.69 231.20
  Q 380.92 230.47 380.69 229.73
  Q 380.53 229.21 380.32 229.74
  C 377.67 236.23 374.94 241.64 369.55 246.04
  C 360.84 253.14 343.83 262.76 348.80 276.70
  Z
  M 296.75 251.79
  L 297.78 252.34
  A 0.54 0.48 -63.8 0 0 298.47 252.06
  Q 299.58 249.60 298.21 247.25
  Q 300.41 243.64 304.53 242.20
  A 0.32 0.32 82.4 0 1 304.96 242.53
  C 303.96 254.33 319.25 255.96 320.88 244.01
  Q 320.95 243.52 320.76 243.00
  L 320.21 241.51
  Q 319.91 240.70 320.84 241.16
  L 325.87 243.67
  Q 328.52 244.99 326.21 247.74
  Q 321.19 253.69 313.24 254.08
  Q 312.72 254.11 313.25 254.33
  C 316.73 255.76 326.37 250.79 330.04 249.50
  L 334.83 248.87
  Q 335.41 248.80 334.94 248.40
  Q 332.88 246.67 330.92 248.72
  Q 330.37 249.30 330.46 248.25
  Q 332.19 245.13 335.73 244.80
  A 1.63 1.16 12.6 0 0 336.68 244.40
  L 338.75 242.26
  A 0.68 0.66 47.0 0 0 338.77 241.36
  C 337.80 240.23 331.20 243.94 335.10 240.11
  Q 335.47 239.75 334.97 239.75
  L 329.51 239.73
  A 0.52 0.35 5.7 0 1 328.96 239.27
  Q 329.76 236.81 327.78 238.00
  A 2.12 1.43 -50.6 0 1 326.77 238.30
  Q 321.91 238.19 317.18 237.06
  C 315.21 236.59 317.22 236.18 317.55 236.20
  Q 321.86 236.43 326.19 236.43
  Q 326.71 236.43 326.21 236.28
  Q 316.62 233.21 307.49 235.48
  Q 299.99 237.35 294.87 243.79
  C 294.80 243.88 294.73 244.57 294.80 244.64
  A 0.71 0.35 -41.1 0 0 295.56 244.44
  C 296.19 243.89 300.12 240.83 300.76 241.25
  A 0.59 0.37 -43.1 0 1 300.56 242.01
  C 298.52 243.61 291.17 250.87 296.75 251.79
  Z
  M 281.46 389.75
  C 312.55 402.81 342.99 412.16 369.75 431.71
  C 383.90 442.66 400.30 458.78 390.39 478.47
  C 390.12 479.00 389.95 480.41 391.23 479.29
  Q 403.95 468.24 405.75 452.69
  C 407.40 438.38 401.02 422.28 388.19 414.81
  Q 386.51 413.84 387.49 415.76
  C 388.09 416.93 393.94 427.73 393.44 427.97
  A 0.94 0.57 44.5 0 1 392.63 427.78
  L 378.50 417.39
  Q 359.79 404.45 338.74 395.52
  C 327.12 390.59 306.98 383.69 290.73 375.91
  Q 275.68 367.96 267.75 362.02
  Q 247.33 346.74 239.05 320.76
  C 238.90 320.28 236.94 313.16 238.02 312.77
  A 0.74 0.48 65.4 0 1 238.73 313.22
  C 243.74 322.94 256.04 344.46 267.82 346.63
  Q 269.59 346.95 268.27 345.73
  C 254.35 332.86 242.22 313.83 240.30 295.23
  Q 239.59 288.43 238.74 281.51
  Q 238.67 281.00 238.34 281.38
  C 223.25 298.93 221.62 331.26 233.09 350.68
  C 243.73 368.68 262.06 381.75 281.46 389.75
  Z
  M 267.65 282.13
  Q 270.82 283.92 274.24 285.19
  Q 274.86 285.42 274.53 284.98
  Q 272.06 281.69 267.96 281.30
  Q 265.83 281.10 267.65 282.13
  Z
  M 287.0619 281.4697
  A 3.75 0.69 -25.6 0 0 283.3819 282.4677
  A 3.75 0.69 -25.6 0 0 280.2981 284.7103
  A 3.75 0.69 -25.6 0 0 283.9781 283.7123
  A 3.75 0.69 -25.6 0 0 287.0619 281.4697
  Z
  M 256.94 309.31
  C 265.76 317.23 274.74 323.26 286.34 315.33
  Q 292.96 310.80 297.18 306.11
  A 0.40 0.40 36.0 0 0 297.08 305.49
  C 290.67 301.77 282.21 297.63 276.40 302.84
  A 1.27 1.27 -47.8 0 1 274.80 302.92
  C 267.33 297.38 260.29 302.37 253.96 305.43
  A 0.44 0.42 -30.7 0 0 253.78 306.06
  Q 254.60 307.22 256.94 309.31
  Z
  M 357.49 343.21
  C 369.43 336.42 383.78 332.03 393.65 345.08
  C 401.72 355.73 399.87 364.72 393.54 375.51
  Q 392.69 376.97 393.73 377.38
  A 1.19 0.84 -43.4 0 0 394.64 377.25
  C 409.11 368.49 407.67 348.12 397.02 337.21
  Q 382.72 322.56 365.30 332.88
  Q 359.52 336.30 356.55 342.32
  Q 355.58 344.29 357.49 343.21
  Z
  M 262.18 350.26
  C 268.24 361.40 279.03 365.07 290.68 367.21
  C 311.72 371.07 330.38 377.36 347.05 391.19
  Q 362.50 404.01 382.59 403.25
  C 393.56 402.83 403.53 399.18 410.01 390.51
  C 421.82 374.69 420.25 351.04 404.77 337.73
  Q 403.64 336.77 402.37 336.24
  Q 401.04 335.68 401.75 336.94
  C 405.88 344.14 408.83 352.64 408.27 360.79
  C 407.63 370.16 402.11 380.00 394.63 385.08
  C 378.90 395.77 352.28 377.37 338.41 369.60
  Q 331.79 365.89 326.26 364.94
  Q 319.60 363.80 292.14 359.85
  C 282.06 358.40 271.06 355.78 262.55 349.93
  Q 261.67 349.32 262.18 350.26
  Z
  M 251.21 449.25
  C 293.88 473.76 272.42 525.33 230.74 530.67
  Q 223.77 531.56 216.74 531.94
  A 1.16 0.73 7.9 0 0 215.90 532.32
  Q 215.53 532.87 216.46 533.22
  Q 230.94 538.65 245.48 535.72
  C 273.44 530.08 301.14 509.65 297.39 477.55
  C 294.81 455.60 276.53 442.16 257.79 433.92
  C 220.88 418.31 185.15 407.82 159.08 377.42
  Q 156.43 374.32 148.22 363.23
  A 1.16 0.54 60.3 0 0 147.50 362.72
  Q 145.59 362.69 144.44 364.20
  A 0.90 0.59 48.9 0 0 144.57 365.11
  Q 150.57 373.48 159.82 385.43
  C 184.08 416.79 216.92 431.99 251.21 449.25
  Z
  M 309.99 418.18
  C 330.08 431.76 350.23 445.86 356.15 471.25
  Q 356.29 471.84 356.55 471.34
  Q 357.02 470.44 356.85 468.68
  C 354.53 444.33 334.10 424.15 311.19 416.37
  C 309.63 415.84 307.50 416.50 309.99 418.18
  Z
  M 379.52 467.25
  C 375.24 455.00 365.15 440.87 352.77 435.72
  A 0.37 0.37 -76.8 0 0 352.26 436.04
  C 352.22 436.58 352.24 437.22 352.53 437.71
  C 364.70 458.14 369.62 481.00 357.51 502.82
  Q 354.50 508.26 347.70 516.46
  Q 346.93 517.39 347.75 517.66
  A 1.37 0.89 -40.8 0 0 348.69 517.53
  C 366.12 508.58 387.31 489.55 379.52 467.25
  Z
  M 201.26 460.67
  Q 202.09 460.06 202.19 461.07
  L 203.30 472.24
  Q 203.57 475.05 204.62 472.50
  C 207.12 466.37 213.17 459.61 219.35 457.36
  C 226.64 454.72 234.42 457.38 241.49 459.80
  Q 243.33 460.43 242.49 458.78
  C 232.29 438.61 200.61 443.78 193.74 463.96
  C 190.18 474.42 194.68 486.97 205.17 491.36
  C 205.75 491.60 206.89 491.41 206.17 490.57
  C 199.73 482.98 195.31 476.30 197.88 465.98
  Q 198.73 462.55 201.26 460.67
  Z
  M 223.58 517.80
  Q 223.90 517.42 225.10 516.62
  Q 234.81 510.19 244.56 503.75
  A 0.75 0.60 -27.9 0 0 244.89 502.99
  Q 244.57 502.03 243.24 502.45
  C 217.16 510.72 188.82 505.27 186.93 472.60
  Q 186.86 471.41 185.97 472.20
  C 179.16 478.27 177.74 490.37 179.51 498.52
  C 183.68 517.73 202.57 526.07 220.56 526.89
  C 237.55 527.67 251.79 520.14 259.90 505.12
  C 265.36 495.02 265.69 487.84 263.40 476.46
  C 263.06 474.75 261.78 474.86 261.65 476.52
  C 260.36 492.24 258.91 504.85 243.60 512.77
  C 237.73 515.80 231.00 519.41 224.25 519.28
  Q 222.39 519.24 223.58 517.80
  Z"
/>
<path fill="#c88c0f" d="
  M 283.19 49.42
  Q 282.08 49.02 280.97 49.35
  A 1.46 1.02 -74.1 0 0 280.25 49.94
  L 268.64 68.15
  C 250.83 73.78 247.08 49.42 264.25 49.49
  A 0.76 0.76 -9.2 0 0 264.98 48.48
  C 261.67 38.69 268.99 28.48 273.57 20.31
  A 0.48 0.48 42.0 0 1 274.38 20.27
  C 280.08 28.42 286.54 39.11 283.19 49.42
  Z"
/>
<path fill="#dba22a" d="
  M 283.19 49.42
  C 291.00 49.03 297.47 54.90 294.69 62.72
  C 292.43 69.10 286.37 68.76 280.77 69.00
  A 0.48 0.47 80.4 0 0 280.34 69.61
  Q 282.64 77.34 289.09 81.31
  Q 288.26 86.71 287.51 87.71
  Q 285.83 89.96 285.72 92.70
  A 1.59 1.52 -27.6 0 1 285.42 93.58
  Q 284.18 95.33 284.25 97.46
  Q 268.82 96.67 253.53 98.17
  Q 254.91 96.51 254.60 94.01
  A 1.52 0.51 -53.8 0 1 254.90 93.08
  L 260.59 83.04
  Q 261.01 82.29 261.17 82.16
  Q 262.36 81.17 261.57 79.97
  Q 266.31 75.14 268.64 68.15
  L 280.25 49.94
  A 1.46 1.02 -74.1 0 1 280.97 49.35
  Q 282.08 49.02 283.19 49.42
  Z"
/>
<path fill="#edb84a" d="
  M 284.25 97.46
  Q 284.18 95.33 285.42 93.58
  A 1.59 1.52 -27.6 0 0 285.72 92.70
  Q 285.83 89.96 287.51 87.71
  Q 288.26 86.71 289.09 81.31
  C 297.92 86.19 309.66 81.83 315.80 74.62
  A 0.53 0.53 43.0 0 0 315.77 73.90
  Q 312.44 70.53 313.10 66.52
  C 314.88 55.66 330.31 59.75 327.98 69.04
  Q 326.82 73.70 321.63 75.07
  A 1.79 1.78 -4.1 0 0 320.31 76.59
  C 318.86 88.71 329.86 99.40 341.53 91.21
  Q 346.62 87.65 349.90 82.17
  A 0.35 0.34 24.7 0 0 349.71 81.67
  C 337.89 77.48 347.87 62.14 356.17 72.34
  A 0.85 0.78 -42.1 0 0 357.37 72.35
  Q 363.49 66.25 372.23 67.78
  Q 373.23 67.95 372.54 68.59
  C 359.93 80.37 350.55 95.33 343.63 111.06
  A 0.51 0.51 23.2 0 1 342.97 111.32
  Q 314.73 99.67 284.25 97.46
  Z"
/>
<path fill="#c38406" d="
  M 261.57 79.97
  Q 262.36 81.17 261.17 82.16
  Q 261.01 82.29 260.59 83.04
  L 254.90 93.08
  A 1.52 0.51 -53.8 0 0 254.60 94.01
  Q 254.91 96.51 253.53 98.17
  Q 228.54 101.00 205.27 110.28
  A 0.53 0.52 -23.4 0 1 204.60 110.02
  C 197.98 96.08 187.95 79.17 176.31 68.94
  Q 175.38 68.13 176.60 67.88
  Q 184.73 66.22 190.28 72.21
  A 1.23 1.14 46.5 0 0 191.98 72.32
  C 196.17 68.18 202.00 67.19 203.82 73.49
  C 205.09 77.88 201.87 79.55 199.03 81.97
  A 1.15 1.15 -41.6 0 0 198.93 83.61
  C 202.96 87.99 210.30 96.31 217.07 94.10
  Q 227.03 90.84 227.89 78.65
  Q 228.07 76.04 225.88 74.62
  C 222.87 72.66 219.19 71.00 220.55 66.12
  C 223.93 54.00 241.51 62.30 232.75 73.67
  A 1.79 1.79 -52.2 0 0 233.06 76.16
  C 240.95 82.38 252.31 87.04 261.57 79.97
  Z"
/>
<path fill="#c88c0f" d="
  M 252.47 69.62
  L 260.83 73.70
  A 0.39 0.36 32.6 0 1 260.98 74.27
  C 254.50 82.16 245.80 79.23 238.46 74.70
  A 0.93 0.87 17.9 0 1 238.03 73.93
  Q 238.10 71.40 240.07 71.10
  Q 246.14 70.19 252.02 69.53
  A 0.95 0.72 48.5 0 1 252.47 69.62
  Z"
/>
<path fill="#edb84a" d="
  M 309.44 73.04
  Q 310.92 73.34 309.62 74.37
  C 302.66 79.90 293.93 81.15 287.22 74.39
  Q 286.17 73.33 287.49 73.03
  Q 291.17 72.18 294.45 70.40
  A 1.60 1.59 -52.9 0 1 295.50 70.25
  L 309.44 73.04
  Z"
/>
<path fill="#c38406" d="
  M 218.85 76.67
  C 220.41 76.25 221.90 77.06 223.10 77.95
  A 0.76 0.60 -78.7 0 1 223.36 78.46
  C 223.77 83.63 220.54 89.70 214.86 89.99
  C 211.71 90.15 207.71 86.46 205.74 84.38
  Q 204.11 82.65 206.22 81.56
  Q 212.31 78.41 218.85 76.67
  Z"
/>
<path fill="#edb84a" d="
  M 324.85 78.93
  Q 325.12 78.32 325.68 78.17
  A 1.15 0.20 -17.6 0 1 326.56 78.05
  Q 334.62 80.52 342.05 84.47
  A 0.54 0.48 -52.7 0 1 342.11 85.29
  C 336.84 90.53 328.65 92.54 325.67 83.57
  Q 324.44 79.86 324.85 78.93
  Z"
/>
<path fill="#c38406" d="
  M 135.15 313.48
  C 132.89 321.95 134.15 330.68 137.36 338.69
  Q 137.55 339.15 137.21 338.79
  Q 128.46 329.49 126.56 326.44
  C 100.08 284.10 93.93 229.74 110.56 182.73
  Q 131.76 122.80 187.55 90.23
  A 0.76 0.71 -31.4 0 1 188.55 90.44
  L 195.75 102.00
  A 0.45 0.35 -30.5 0 1 195.54 102.54
  C 127.30 142.02 98.03 221.78 127.26 295.69
  Q 129.32 300.90 135.06 312.55
  A 1.33 1.32 39.8 0 1 135.15 313.48
  Z"
/>
<path fill="#d09229" d="
  M 421.52 161.45
  Q 413.64 164.29 410.46 172.00
  Q 390.42 130.75 351.71 106.21
  A 0.78 0.37 32.1 0 1 351.26 105.50
  L 357.81 93.32
  A 0.66 0.45 31.0 0 1 358.62 93.27
  Q 399.70 118.52 421.52 161.45
  Z"
/>
<path fill="#d79b31" d="
  M 349.10 139.98
  Q 349.31 139.92 349.21 139.49
  Q 346.66 128.24 340.37 118.47
  A 0.34 0.31 69.6 0 1 340.58 117.96
  Q 341.58 117.86 342.63 118.59
  C 355.60 127.71 376.60 150.11 371.82 166.97
  C 369.09 176.60 359.51 183.04 350.04 185.56
  Q 348.51 185.96 349.31 184.60
  C 356.24 172.80 361.61 151.08 353.24 138.80
  C 352.40 137.56 352.18 138.57 352.32 139.29
  Q 356.60 161.41 343.14 178.38
  C 341.17 180.85 337.94 183.25 335.04 183.61
  Q 333.10 183.85 333.21 181.90
  C 334.22 164.93 332.10 149.87 322.38 134.85
  C 311.79 118.50 298.19 109.83 281.49 100.95
  A 0.60 0.46 28.6 0 1 281.18 100.24
  Q 281.36 99.94 281.75 99.99
  Q 302.31 102.47 319.32 114.20
  Q 319.52 114.34 319.66 114.19
  A 0.29 0.25 -44.3 0 0 319.69 113.81
  L 314.19 108.31
  A 1.56 0.93 30.9 0 1 313.73 107.45
  Q 313.61 106.09 315.24 106.54
  C 330.28 110.72 342.70 125.84 348.69 139.66
  A 0.48 0.28 68.3 0 0 349.10 139.98
  Z"
/>
<path fill="#d9a635" d="
  M 238.25 156.96
  Q 238.42 154.77 237.28 152.92
  A 0.51 0.47 -33.7 0 1 237.44 152.26
  Q 238.07 151.80 236.00 151.96
  C 247.67 148.15 258.71 148.06 270.79 148.51
  A 1.57 1.56 -3.1 0 0 272.40 146.73
  C 269.51 126.18 250.07 114.23 231.05 125.94
  C 230.18 126.47 228.41 126.73 229.13 124.85
  C 230.93 120.08 233.67 116.40 237.19 112.47
  Q 250.88 97.18 272.36 102.57
  Q 275.45 103.34 277.18 105.02
  Q 278.87 106.66 276.52 106.56
  C 263.92 106.04 252.21 106.32 241.95 114.68
  C 240.53 115.84 241.61 116.42 242.80 116.33
  C 263.59 114.64 278.26 127.58 273.52 149.27
  A 1.35 1.34 8.4 0 1 272.10 150.32
  Q 254.44 148.99 238.25 156.96
  Z"
/>
<path fill="#edb84a" d="
  M 198.75 219.21
  Q 198.98 213.80 201.88 209.50
  C 205.27 204.47 207.50 200.35 210.38 195.74
  A 0.14 0.13 25.5 0 0 210.30 195.54
  C 210.01 195.46 209.97 195.44 210.18 195.21
  Q 213.01 192.03 215.22 188.37
  A 0.64 0.57 37.7 0 0 215.08 187.63
  Q 214.70 187.27 214.50 186.79
  Q 229.61 183.13 253.81 177.85
  C 272.86 173.70 291.14 164.81 289.49 142.01
  Q 288.43 127.47 276.29 119.93
  C 275.27 119.30 274.50 117.60 276.98 118.03
  Q 299.09 121.83 304.01 143.51
  C 309.67 168.49 296.95 191.26 272.66 199.62
  C 256.80 205.08 239.19 207.62 222.75 210.99
  Q 215.97 212.38 198.75 219.21
  Z"
/>
<path fill="#b98218" d="
  M 201.38 122.03
  C 207.21 121.78 212.99 124.65 215.97 129.76
  Q 217.26 131.98 215.08 130.92
  C 209.63 128.26 205.85 125.52 199.41 126.32
  C 185.23 128.07 182.70 144.23 188.74 154.68
  C 188.94 155.01 189.58 156.73 188.13 155.32
  C 175.71 143.35 184.57 122.75 201.38 122.03
  Z"
/>
<path fill="#c2860f" d="
  M 236.00 151.96
  Q 238.07 151.80 237.44 152.26
  A 0.51 0.47 -33.7 0 0 237.28 152.92
  Q 238.42 154.77 238.25 156.96
  Q 227.05 162.41 216.45 168.96
  C 212.84 171.19 206.74 174.29 201.74 174.86
  C 196.80 175.43 194.65 175.74 190.87 178.39
  Q 183.30 183.71 176.91 190.40
  Q 165.75 202.11 162.57 218.02
  Q 159.85 219.92 157.75 222.67
  Q 156.90 223.77 155.94 226.65
  Q 154.34 231.43 149.54 233.60
  C 149.22 206.88 164.42 186.38 187.12 173.74
  A 0.29 0.29 45.7 0 0 187.12 173.24
  C 178.46 167.99 173.56 159.75 173.55 149.54
  C 173.54 143.07 176.21 131.73 182.76 128.26
  Q 183.20 128.03 183.41 128.32
  A 0.95 0.57 -53.3 0 1 183.32 129.18
  C 171.36 150.16 190.96 174.62 214.49 161.53
  Q 224.82 155.78 236.00 151.96
  Z"
/>
<path fill="#b98218" d="
  M 201.19 137.39
  Q 201.18 136.08 200.08 136.80
  Q 194.22 140.65 194.41 147.70
  C 194.44 148.79 193.53 148.62 193.37 147.73
  C 190.15 129.70 219.07 128.06 217.76 144.96
  Q 217.57 147.47 216.04 145.47
  C 211.16 139.09 209.15 138.16 201.26 141.04
  Q 199.72 141.60 200.48 140.00
  Q 201.20 138.47 201.19 137.39
  Z"
/>
<path fill="#e9b346" d="
  M 217.14 349.43
  Q 212.06 353.42 209.26 359.16
  C 205.70 366.45 200.26 373.07 195.84 379.91
  Q 195.65 380.20 195.56 380.83
  C 195.00 384.48 188.70 390.81 186.25 392.79
  C 164.30 378.18 144.04 357.10 139.43 330.87
  C 136.88 316.41 138.89 301.73 145.54 288.80
  Q 146.05 287.82 146.98 288.11
  A 0.60 0.57 -78.4 0 1 147.38 288.75
  Q 143.07 322.57 167.12 345.93
  A 0.54 0.33 43.8 0 0 167.75 346.07
  Q 167.92 345.89 167.62 345.40
  C 158.07 329.93 156.40 314.64 159.43 296.82
  C 165.26 262.58 201.50 238.68 230.84 225.44
  C 255.52 214.31 281.05 203.31 299.93 183.21
  Q 312.22 170.12 312.15 152.03
  C 312.14 149.72 313.08 150.66 313.32 151.73
  C 320.29 182.49 302.70 201.90 281.77 220.51
  Q 271.05 230.05 260.30 239.58
  A 0.52 0.51 49.4 0 0 260.25 240.30
  Q 267.48 248.92 259.17 242.02
  Q 258.44 241.41 257.81 241.90
  A 0.57 0.49 48.7 0 0 257.82 242.68
  Q 261.11 246.06 263.33 250.16
  A 1.98 1.70 61.8 0 1 262.77 252.71
  Q 260.60 253.86 258.27 254.01
  A 0.63 0.33 -1.2 0 1 257.59 253.67
  C 257.69 252.71 265.23 253.16 260.40 248.73
  A 0.47 0.33 34.9 0 0 259.73 248.73
  Q 256.58 256.97 258.87 247.97
  A 1.19 0.22 -74.2 0 0 258.96 247.04
  Q 258.01 245.16 256.18 244.06
  A 0.83 0.52 -49.2 0 0 255.36 244.31
  C 227.56 271.88 203.39 308.42 217.14 349.43
  Z"
/>
<path fill="#e2a840" d="
  M 421.52 161.45
  Q 435.30 188.27 438.54 218.25
  Q 438.43 220.45 436.65 221.48
  A 1.45 0.49 -24.9 0 0 435.91 222.18
  L 434.53 226.75
  Q 434.27 227.59 434.17 227.73
  L 429.34 234.08
  A 1.94 0.95 -8.1 0 1 428.50 234.65
  Q 426.79 235.31 425.57 237.09
  Q 425.41 237.33 425.37 237.03
  L 425.04 234.50
  Q 424.38 201.67 410.46 172.00
  Q 413.64 164.29 421.52 161.45
  Z"
/>
<path fill="#d59a22" d="
  M 214.50 186.79
  Q 214.70 187.27 215.08 187.63
  A 0.64 0.57 37.7 0 1 215.22 188.37
  Q 213.01 192.03 210.18 195.21
  C 209.97 195.44 210.01 195.46 210.30 195.54
  A 0.14 0.13 25.5 0 1 210.38 195.74
  C 207.50 200.35 205.27 204.47 201.88 209.50
  Q 198.98 213.80 198.75 219.21
  C 175.41 229.02 159.36 243.27 158.90 270.57
  C 158.89 271.32 158.09 272.51 157.50 271.28
  Q 149.12 253.72 149.54 233.60
  Q 154.34 231.43 155.94 226.65
  Q 156.90 223.77 157.75 222.67
  Q 159.85 219.92 162.57 218.02
  C 175.37 200.38 193.45 191.11 214.50 186.79
  Z"
/>
<path fill="#d09229" d="
  M 372.41 211.68
  Q 372.13 206.99 370.82 202.49
  C 370.40 201.05 370.93 199.98 372.03 201.50
  C 381.05 213.89 376.33 229.93 366.05 240.07
  C 362.66 243.42 356.56 247.14 352.94 250.63
  Q 346.25 257.07 342.81 264.57
  C 340.04 270.61 342.78 277.41 345.50 282.99
  Q 345.75 283.50 345.46 283.64
  A 0.74 0.45 48.5 0 1 344.76 283.42
  C 330.27 269.81 340.50 251.36 350.97 239.72
  C 364.30 224.90 362.19 202.83 349.51 188.17
  A 1.16 0.99 33.2 0 1 349.24 187.25
  Q 349.28 187.05 349.44 186.92
  A 0.65 0.41 33.1 0 1 350.06 186.93
  Q 365.77 194.89 371.51 211.23
  Q 371.70 211.76 371.98 212.00
  Q 372.45 212.40 372.41 211.68
  Z"
/>
<path fill="#eec161" d="
  M 237.58 216.19
  Q 238.82 216.39 237.76 217.01
  L 233.79 219.32
  A 1.88 1.11 20.8 0 1 232.75 219.50
  C 221.25 218.43 216.42 218.39 208.20 223.73
  Q 207.95 223.89 207.67 223.80
  Q 207.19 223.65 207.64 223.25
  C 216.82 215.23 225.82 214.29 237.58 216.19
  Z"
/>
<path fill="#d09229" d="
  M 289.16 226.60
  Q 291.43 223.20 293.02 222.28
  C 302.91 216.56 319.66 214.63 331.70 215.93
  C 336.87 216.48 341.32 219.78 345.14 223.02
  A 1.00 0.64 27.9 0 1 345.51 223.67
  Q 345.51 224.17 344.79 223.75
  C 339.66 220.73 335.88 218.93 329.75 218.92
  C 318.84 218.91 307.77 222.75 298.00 227.26
  Q 293.74 229.22 290.14 228.76
  Q 287.90 228.48 289.16 226.60
  Z"
/>
<path fill="#f5c057" d="
  M 438.54 218.25
  C 443.40 257.01 433.76 296.97 412.54 329.59
  A 0.55 0.42 -48.5 0 1 411.75 329.75
  Q 408.11 324.57 402.72 321.27
  A 0.66 0.54 -62.6 0 1 402.56 320.49
  Q 411.32 301.25 412.94 297.47
  Q 425.67 267.79 425.04 234.50
  L 425.37 237.03
  Q 425.41 237.33 425.57 237.09
  Q 426.79 235.31 428.50 234.65
  A 1.94 0.95 -8.1 0 0 429.34 234.08
  L 434.17 227.73
  Q 434.27 227.59 434.53 226.75
  L 435.91 222.18
  A 1.45 0.49 -24.9 0 1 436.65 221.48
  Q 438.43 220.45 438.54 218.25
  Z"
/>
<path fill="#da9f36" d="
  M 361.76 287.42
  C 355.12 287.43 350.83 282.37 348.80 276.70
  C 343.83 262.76 360.84 253.14 369.55 246.04
  C 374.94 241.64 377.67 236.23 380.32 229.74
  Q 380.53 229.21 380.69 229.73
  Q 380.92 230.47 380.69 231.20
  C 377.65 240.70 372.32 250.17 363.81 255.81
  C 361.89 257.08 358.60 260.71 357.39 262.28
  Q 353.37 267.50 357.35 273.65
  C 366.22 287.33 375.88 277.23 378.20 266.46
  Q 378.29 266.03 378.68 265.99
  A 0.85 0.61 70.5 0 1 379.40 266.49
  C 385.75 279.93 373.26 287.41 361.76 287.42
  Z"
/>
<path fill="#c58620" d="
  M 330.46 248.25
  L 330.04 249.50
  C 326.37 250.79 316.73 255.76 313.25 254.33
  Q 312.72 254.11 313.24 254.08
  Q 321.19 253.69 326.21 247.74
  Q 328.52 244.99 325.87 243.67
  L 320.84 241.16
  Q 319.91 240.70 320.21 241.51
  L 320.76 243.00
  Q 320.95 243.52 320.88 244.01
  C 319.25 255.96 303.96 254.33 304.96 242.53
  A 0.32 0.32 82.4 0 0 304.53 242.20
  Q 300.41 243.64 298.21 247.25
  L 297.25 247.96
  Q 295.20 249.64 297.00 251.04
  L 296.75 251.79
  C 291.17 250.87 298.52 243.61 300.56 242.01
  A 0.59 0.37 -43.1 0 0 300.76 241.25
  C 300.12 240.83 296.19 243.89 295.56 244.44
  A 0.71 0.35 -41.1 0 1 294.80 244.64
  C 294.73 244.57 294.80 243.88 294.87 243.79
  Q 299.99 237.35 307.49 235.48
  Q 316.62 233.21 326.21 236.28
  Q 326.71 236.43 326.19 236.43
  Q 321.86 236.43 317.55 236.20
  C 317.22 236.18 315.21 236.59 317.18 237.06
  Q 321.91 238.19 326.77 238.30
  A 2.12 1.43 -50.6 0 0 327.78 238.00
  Q 329.76 236.81 328.96 239.27
  A 0.52 0.35 5.7 0 0 329.51 239.73
  L 334.97 239.75
  Q 335.47 239.75 335.10 240.11
  C 331.20 243.94 337.80 240.23 338.77 241.36
  A 0.68 0.66 47.0 0 1 338.75 242.26
  L 336.68 244.40
  A 1.63 1.16 12.6 0 1 335.73 244.80
  Q 332.19 245.13 330.46 248.25
  Z
  M 317.80 247.30
  Q 318.51 246.47 318.39 245.43
  Q 318.32 244.84 318.03 245.22
  Q 312.81 252.09 307.71 245.24
  Q 307.37 244.78 307.30 245.26
  Q 307.11 246.59 307.68 247.24
  Q 312.84 253.08 317.80 247.30
  Z"
/>
<path fill="#ffffff" d="
  M 317.80 247.30
  Q 312.84 253.08 307.68 247.24
  Q 307.11 246.59 307.30 245.26
  Q 307.37 244.78 307.71 245.24
  Q 312.81 252.09 318.03 245.22
  Q 318.32 244.84 318.39 245.43
  Q 318.51 246.47 317.80 247.30
  Z"
/>
<path fill="#eec161" d="
  M 298.21 247.25
  Q 299.58 249.60 298.47 252.06
  A 0.54 0.48 -63.8 0 1 297.78 252.34
  L 296.75 251.79
  L 297.00 251.04
  Q 299.15 249.61 297.25 247.96
  L 298.21 247.25
  Z"
/>
<path fill="#eec161" d="
  M 330.04 249.50
  L 330.46 248.25
  Q 330.37 249.30 330.92 248.72
  Q 332.88 246.67 334.94 248.40
  Q 335.41 248.80 334.83 248.87
  L 330.04 249.50
  Z"
/>
<path fill="#ffffff" d="
  M 297.25 247.96
  Q 299.15 249.61 297.00 251.04
  Q 295.20 249.64 297.25 247.96
  Z"
/>
<path fill="#d09229" d="
  M 290.73 375.91
  Q 291.53 377.32 290.46 378.05
  Q 290.00 378.36 289.76 378.72
  C 287.61 381.97 283.75 382.47 283.15 387.30
  A 1.92 1.09 -35.1 0 1 282.74 388.17
  L 281.46 389.75
  C 262.06 381.75 243.73 368.68 233.09 350.68
  C 221.62 331.26 223.25 298.93 238.34 281.38
  Q 238.67 281.00 238.74 281.51
  Q 239.59 288.43 240.30 295.23
  C 242.22 313.83 254.35 332.86 268.27 345.73
  Q 269.59 346.95 267.82 346.63
  C 256.04 344.46 243.74 322.94 238.73 313.22
  A 0.74 0.48 65.4 0 0 238.02 312.77
  C 236.94 313.16 238.90 320.28 239.05 320.76
  Q 247.33 346.74 267.75 362.02
  Q 275.68 367.96 290.73 375.91
  Z"
/>
<path fill="#c38406" d="
  M 267.65 282.13
  Q 265.83 281.10 267.96 281.30
  Q 272.06 281.69 274.53 284.98
  Q 274.86 285.42 274.24 285.19
  Q 270.82 283.92 267.65 282.13
  Z"
/>
<ellipse fill="#b98218" cx="0.00" cy="0.00" transform="translate(283.68,283.09) rotate(-25.6)" rx="3.75" ry="0.69"/>
<path fill="#c58620" d="
  M 256.94 309.31
  Q 254.60 307.22 253.78 306.06
  A 0.44 0.42 -30.7 0 1 253.96 305.43
  C 260.29 302.37 267.33 297.38 274.80 302.92
  A 1.27 1.27 -47.8 0 0 276.40 302.84
  C 282.21 297.63 290.67 301.77 297.08 305.49
  A 0.40 0.40 36.0 0 1 297.18 306.11
  Q 292.96 310.80 286.34 315.33
  C 274.74 323.26 265.76 317.23 256.94 309.31
  Z
  M 266.66 308.89
  Q 275.93 312.25 285.11 308.45
  Q 285.78 308.17 285.02 308.33
  Q 275.60 310.34 266.18 308.28
  C 265.55 308.14 264.40 308.67 266.19 308.80
  Q 266.44 308.81 266.66 308.89
  Z"
/>
<path fill="#ffffff" d="
  M 266.19 308.80
  C 264.40 308.67 265.55 308.14 266.18 308.28
  Q 275.60 310.34 285.02 308.33
  Q 285.78 308.17 285.11 308.45
  Q 275.93 312.25 266.66 308.89
  Q 266.44 308.81 266.19 308.80
  Z"
/>
<path fill="#f5c057" d="
  M 393.65 345.08
  C 383.78 332.03 369.43 336.42 357.49 343.21
  Q 355.58 344.29 356.55 342.32
  Q 359.52 336.30 365.30 332.88
  Q 382.72 322.56 397.02 337.21
  C 407.67 348.12 409.11 368.49 394.64 377.25
  A 1.19 0.84 -43.4 0 1 393.73 377.38
  Q 392.69 376.97 393.54 375.51
  C 399.87 364.72 401.72 355.73 393.65 345.08
  Z"
/>
<path fill="#edb84a" d="
  M 290.68 367.21
  C 279.03 365.07 268.24 361.40 262.18 350.26
  Q 261.67 349.32 262.55 349.93
  C 271.06 355.78 282.06 358.40 292.14 359.85
  Q 319.60 363.80 326.26 364.94
  Q 331.79 365.89 338.41 369.60
  C 352.28 377.37 378.90 395.77 394.63 385.08
  C 402.11 380.00 407.63 370.16 408.27 360.79
  C 408.83 352.64 405.88 344.14 401.75 336.94
  Q 401.04 335.68 402.37 336.24
  Q 403.64 336.77 404.77 337.73
  C 420.25 351.04 421.82 374.69 410.01 390.51
  C 403.53 399.18 393.56 402.83 382.59 403.25
  Q 362.50 404.01 347.05 391.19
  C 330.38 377.36 311.72 371.07 290.68 367.21
  Z"
/>
<path fill="#d09229" d="
  M 217.14 349.43
  C 231.73 385.32 264.28 401.43 296.50 421.29
  C 295.07 424.23 293.88 426.79 291.46 429.36
  Q 287.68 433.37 286.00 438.71
  Q 268.85 431.58 234.00 418.50
  Q 209.56 409.33 186.25 392.79
  C 188.70 390.81 195.00 384.48 195.56 380.83
  Q 195.65 380.20 195.84 379.91
  C 200.26 373.07 205.70 366.45 209.26 359.16
  Q 212.06 353.42 217.14 349.43
  Z"
/>
<path fill="#d09229" d="
  M 257.79 433.92
  Q 256.12 439.54 252.56 443.88
  A 1.51 1.18 -31.0 0 0 252.23 444.74
  L 252.24 447.00
  A 1.04 0.82 -21.0 0 1 251.79 447.76
  Q 251.10 448.23 251.21 449.25
  C 216.92 431.99 184.08 416.79 159.82 385.43
  Q 150.57 373.48 144.57 365.11
  A 0.90 0.59 48.9 0 1 144.44 364.20
  Q 145.59 362.69 147.50 362.72
  A 1.16 0.54 60.3 0 1 148.22 363.23
  Q 156.43 374.32 159.08 377.42
  C 185.15 407.82 220.88 418.31 257.79 433.92
  Z"
/>
<path fill="#edb84a" d="
  M 290.73 375.91
  C 306.98 383.69 327.12 390.59 338.74 395.52
  Q 359.79 404.45 378.50 417.39
  Q 377.00 419.00 376.04 420.87
  C 373.96 424.89 371.04 426.91 369.75 431.71
  C 342.99 412.16 312.55 402.81 281.46 389.75
  L 282.74 388.17
  A 1.92 1.09 -35.1 0 0 283.15 387.30
  C 283.75 382.47 287.61 381.97 289.76 378.72
  Q 290.00 378.36 290.46 378.05
  Q 291.53 377.32 290.73 375.91
  Z"
/>
<path fill="#d79b31" d="
  M 369.75 431.71
  C 371.04 426.91 373.96 424.89 376.04 420.87
  Q 377.00 419.00 378.50 417.39
  L 392.63 427.78
  A 0.94 0.57 44.5 0 0 393.44 427.97
  C 393.94 427.73 388.09 416.93 387.49 415.76
  Q 386.51 413.84 388.19 414.81
  C 401.02 422.28 407.40 438.38 405.75 452.69
  Q 403.95 468.24 391.23 479.29
  C 389.95 480.41 390.12 479.00 390.39 478.47
  C 400.30 458.78 383.90 442.66 369.75 431.71
  Z"
/>
<path fill="#eec161" d="
  M 309.99 418.18
  C 307.50 416.50 309.63 415.84 311.19 416.37
  C 334.10 424.15 354.53 444.33 356.85 468.68
  Q 357.02 470.44 356.55 471.34
  Q 356.29 471.84 356.15 471.25
  C 350.23 445.86 330.08 431.76 309.99 418.18
  Z"
/>
<path fill="#edb84a" d="
  M 296.50 421.29
  C 314.25 431.87 341.48 449.57 347.16 470.83
  C 351.45 486.86 343.02 500.89 329.20 509.76
  Q 327.66 510.75 328.26 509.02
  Q 330.17 503.47 331.60 497.79
  C 339.93 464.55 311.46 449.19 286.00 438.71
  Q 287.68 433.37 291.46 429.36
  C 293.88 426.79 295.07 424.23 296.50 421.29
  Z"
/>
<path fill="#edb84a" d="
  M 257.79 433.92
  C 276.53 442.16 294.81 455.60 297.39 477.55
  C 301.14 509.65 273.44 530.08 245.48 535.72
  Q 230.94 538.65 216.46 533.22
  Q 215.53 532.87 215.90 532.32
  A 1.16 0.73 7.9 0 1 216.74 531.94
  Q 223.77 531.56 230.74 530.67
  C 272.42 525.33 293.88 473.76 251.21 449.25
  Q 251.10 448.23 251.79 447.76
  A 1.04 0.82 -21.0 0 0 252.24 447.00
  L 252.23 444.74
  A 1.51 1.18 -31.0 0 1 252.56 443.88
  Q 256.12 439.54 257.79 433.92
  Z"
/>
<path fill="#d79b31" d="
  M 352.77 435.72
  C 365.15 440.87 375.24 455.00 379.52 467.25
  C 387.31 489.55 366.12 508.58 348.69 517.53
  A 1.37 0.89 -40.8 0 1 347.75 517.66
  Q 346.93 517.39 347.70 516.46
  Q 354.50 508.26 357.51 502.82
  C 369.62 481.00 364.70 458.14 352.53 437.71
  C 352.24 437.22 352.22 436.58 352.26 436.04
  A 0.37 0.37 -76.8 0 1 352.77 435.72
  Z"
/>
<path fill="#d09229" d="
  M 201.26 460.67
  Q 198.73 462.55 197.88 465.98
  C 195.31 476.30 199.73 482.98 206.17 490.57
  C 206.89 491.41 205.75 491.60 205.17 491.36
  C 194.68 486.97 190.18 474.42 193.74 463.96
  C 200.61 443.78 232.29 438.61 242.49 458.78
  Q 243.33 460.43 241.49 459.80
  C 234.42 457.38 226.64 454.72 219.35 457.36
  C 213.17 459.61 207.12 466.37 204.62 472.50
  Q 203.57 475.05 203.30 472.24
  L 202.19 461.07
  Q 202.09 460.06 201.26 460.67
  Z"
/>
<path fill="#da9f36" d="
  M 223.58 517.80
  Q 222.39 519.24 224.25 519.28
  C 231.00 519.41 237.73 515.80 243.60 512.77
  C 258.91 504.85 260.36 492.24 261.65 476.52
  C 261.78 474.86 263.06 474.75 263.40 476.46
  C 265.69 487.84 265.36 495.02 259.90 505.12
  C 251.79 520.14 237.55 527.67 220.56 526.89
  C 202.57 526.07 183.68 517.73 179.51 498.52
  C 177.74 490.37 179.16 478.27 185.97 472.20
  Q 186.86 471.41 186.93 472.60
  C 188.82 505.27 217.16 510.72 243.24 502.45
  Q 244.57 502.03 244.89 502.99
  A 0.75 0.60 -27.9 0 1 244.56 503.75
  Q 234.81 510.19 225.10 516.62
  Q 223.90 517.42 223.58 517.80
  Z"
/>
</svg>
